# xmcd
#
# Track frame offsets:
#	150
#	13484
#	25875
#	38249
#	49839
#	61402
#	72286
#	83258
#	94445
#	106488
#	120099
#	131321
#	144102
#	155973
#	169015
#	178393
#	189801
#	203829
#	218947
#	231536
#	245299
#	259733
#	272158
#
# Disc length: 3777 seconds
#
# Revision: 0
# Processed by: cddbd v1.5.1PL0 Copyright (c) Steve Scherf et al.
# Submitted via: audiograbber 1.83.01
#
DISCID=490ebf17
DTITLE=Percy Sledge - When A Man/Warm And Tender
DYEAR=1900
DGENRE=
TTITLE0=When A Man Loves A Woman
TTITLE1=My Adorable One
TTITLE2=Put A Little Lovin' On Me
TTITLE3=Love Me All The Way
TTITLE4=When She Touches Me Nothing Else Matters
TTITLE5=You're Pouring Water On A Drowning Man
TTITLE6=Thief In The Night
TTITLE7=You Fooled Me
TTITLE8=Love Makes The World Go Round
TTITLE9=Sucess
TTITLE10=Love Me Like You Mean It
TTITLE11=It Tears Me Up
TTITLE12=I'm Hanging Up Heart For You
TTITLE13=You've Really Got A Hold On Me
TTITLE14=That's How Strong My Love Is
TTITLE15=A Sweet Woman Like You
TTITLE16=Love Me Tender
TTITLE17=Warm And Tender Love
TTITLE18=Try A Little Tenderness
TTITLE19=So Much Love
TTITLE20=I Stand Accused
TTITLE21=Heart Of A Child
TTITLE22=Oh How Happy
EXTD=
EXTT0=
EXTT1=
EXTT2=
EXTT3=
EXTT4=
EXTT5=
EXTT6=
EXTT7=
EXTT8=
EXTT9=
EXTT10=
EXTT11=
EXTT12=
EXTT13=
EXTT14=
EXTT15=
EXTT16=
EXTT17=
EXTT18=
EXTT19=
EXTT20=
EXTT21=
EXTT22=
PLAYORDER=
